<svg width="275" height="249" viewBox="0 0 275 249" fill="none" xmlns="http://www.w3.org/2000/svg">
<path d="M193.377 0C141.706 0 101 41.619 101 92C101 142.381 142.775 184 193.377 184C217.554 184 234.082 175.238 241.785 170.857C259.383 159.905 269.279 144.571 267.086 129.238C264.892 116.095 252.804 106.211 237.399 101.83C236.275 101.83 234.082 100.708 233.013 100.708C240.715 96.3275 245.101 90.8246 246.225 83.1847C248.418 66.7294 229.75 50.3275 204.449 47.0151C181.342 43.7027 162.674 45.8932 156.041 45.8932V75.4913C169.253 73.3008 186.851 73.3008 201.133 75.4913C213.221 77.6818 220.924 82.0627 222.047 87.5656C222.047 88.6876 222.047 90.8781 220.924 91.9466C217.608 96.3275 212.152 96.3275 207.712 95.259C192.307 93.0685 174.709 93.0685 157.111 95.259V124.857C173.586 122.667 201.079 122.667 214.291 124.857C226.38 127.048 234.082 132.551 235.206 139.122C235.206 142.434 234.082 144.625 231.889 147.884C227.503 153.387 214.291 158.836 195.623 158.836C158.234 158.836 127.424 128.17 127.424 90.9315C127.424 53.6934 158.18 23.0267 195.57 23.0267C232.959 23.0267 263.769 53.6934 263.769 90.9315V98.6249C268.155 100.815 275.858 106.318 284.684 116.149C286.877 108.455 288 99.6934 288 90.9315C286.877 40.5505 245.048 0 193.377 0Z" fill="url(#paint0_linear_1_1060)" fill-opacity="0.5"/>
<path d="M222.547 87.5146L222.537 87.4658C221.934 84.5131 219.586 81.9428 215.951 79.8525C212.307 77.7574 207.299 76.1002 201.222 74.999L201.209 74.9971L199.855 74.7979C185.991 72.8317 169.322 72.8673 156.541 74.9053V46.3877C163.633 46.29 181.867 44.2829 204.378 47.5098L204.384 47.5107C216.949 49.1559 227.846 54.05 235.318 60.5488C242.793 67.0502 246.794 75.1079 245.729 83.1123C244.634 90.563 240.37 95.9483 232.766 100.273L231.122 101.208H233.013C233.208 101.208 233.49 101.262 233.855 101.365C234.213 101.466 234.609 101.602 235.024 101.743C235.433 101.882 235.86 102.027 236.257 102.137C236.614 102.236 236.98 102.312 237.309 102.325C252.359 106.618 264.075 116.157 266.484 128.72L266.593 129.32C268.739 144.37 259.03 159.534 241.519 170.433C233.838 174.8 217.408 183.5 193.377 183.5C143.05 183.5 101.5 142.103 101.5 92C101.5 41.8933 141.984 0.5 193.377 0.5C244.783 0.50012 286.383 40.8402 287.5 90.9424C287.499 99.331 286.463 107.713 284.444 115.141C276.024 105.896 268.661 100.578 264.27 98.3184V90.9316C264.27 53.4153 233.233 22.5264 195.569 22.5264C157.906 22.5266 126.924 53.416 126.924 90.9316C126.924 128.448 157.96 159.336 195.623 159.336C205.004 159.336 213.028 157.967 219.27 155.898C225.495 153.835 230 151.056 232.28 148.195L232.293 148.18L232.304 148.163C234.513 144.88 235.706 142.587 235.706 139.122V139.079L235.698 139.038C235.107 135.58 232.794 132.457 229.145 129.936C225.494 127.414 220.474 125.469 214.38 124.365L214.373 124.364L213.088 124.164C199.552 122.189 173.656 122.235 157.61 124.289V95.7021C175.016 93.5716 192.397 93.5877 207.62 95.75C212.093 96.8216 217.794 96.8703 221.296 92.2803C221.955 91.6352 222.255 90.7058 222.399 89.8604C222.548 88.9915 222.547 88.1231 222.547 87.5654V87.5146Z" stroke="white" stroke-opacity="0.7"/>
<g opacity="0.99" filter="url(#filter0_f_1_1060)">
<ellipse cx="185" cy="145.5" rx="125" ry="43.5" fill="#EFF5FF"/>
<path d="M185 102.5C219.477 102.5 250.669 107.364 273.224 115.213C284.503 119.138 293.597 123.801 299.859 128.954C306.125 134.11 309.5 139.704 309.5 145.5C309.5 151.296 306.125 156.89 299.859 162.046C293.597 167.199 284.503 171.862 273.224 175.787C250.669 183.636 219.477 188.5 185 188.5C150.523 188.5 119.331 183.636 96.7764 175.787C85.4965 171.862 76.4034 167.199 70.1406 162.046C63.8745 156.89 60.5 151.296 60.5 145.5C60.5 139.704 63.8745 134.11 70.1406 128.954C76.4034 123.801 85.4965 119.138 96.7764 115.213C119.331 107.364 150.523 102.5 185 102.5Z" stroke="white" stroke-opacity="0.7"/>
</g>
<defs>
<filter id="filter0_f_1_1060" x="0" y="42" width="370" height="207" filterUnits="userSpaceOnUse" color-interpolation-filters="sRGB">
<feFlood flood-opacity="0" result="BackgroundImageFix"/>
<feBlend mode="normal" in="SourceGraphic" in2="BackgroundImageFix" result="shape"/>
<feGaussianBlur stdDeviation="30" result="effect1_foregroundBlur_1_1060"/>
</filter>
<linearGradient id="paint0_linear_1_1060" x1="194.5" y1="0" x2="194.5" y2="184" gradientUnits="userSpaceOnUse">
<stop stop-color="white"/>
<stop offset="1" stop-color="white" stop-opacity="0"/>
</linearGradient>
</defs>
</svg>
